# xmcd
#
# Track frame offsets: 
#        150
#        14327
#        30395
#        47222
#        64112
#        76772
#        92055
#        105517
#        123057
#        140812
#        161267
#
# Disc length: 2340 seconds
#
# Revision: 2
# Processed by: cddbd v1.5PL3 Copyright (c) Steve Scherf et al.
# Submitted via: ExactAudioCopy v0.90b4
#
DISCID=7f09220b
DTITLE=Chris LeDoux - After The Storm
DYEAR=2002
DGENRE=Country
TTITLE0=Some Things Never Change
TTITLE1=Millionaire
TTITLE2=Don't It Make You Want To Dance
TTITLE3=Daily Bread
TTITLE4=I Don't Want To Mention Any Names
TTITLE5=I Would For You
TTITLE6=Cowboy Up
TTITLE7=Scatter The Ashes
TTITLE8=What I'm Up Against
TTITLE9=Simple As Dirt
TTITLE10=Bareback Jack
EXTD=Capitol Nashville Records\nwww.capitolnashville.com
EXTT0=
EXTT1=
EXTT2=
EXTT3=
EXTT4=
EXTT5=
EXTT6=
EXTT7=
EXTT8=
EXTT9=
EXTT10=
PLAYORDER=
